PathFileType	4	(X/Y/Z)	OpenSim_Sub09_CSStiffKnee_Accel.trc
DataRate	CameraRate	NumFrames	NumMarkers	Units	OrigDataRate	OrigDataStartFrame	OrigNumFrames
100	100	31	8	m	100	1	7127
Frame#	Time	torso_imu_offset_imu	pelvis_imu_offset_imu	tibia_r_imu_offset_imu	femur_r_imu_offset_imu	tibia_l_imu_offset_imu	femur_l_imu_offset_imu	toes_r_imu_offset_imu	toes_l_imu_offset_imu
				X1	Y1	Z1	X2	Y2	Z2	X3	Y3	Z3	X4	Y4	Z4	X5	Y5	Z5	X6	Y6	Z6	X7	Y7	Z7	X8		Y8	Z8	

1	0	9.33602206	0.00838145	5.89670523	9.68661522	-0.82490634	2.09810674	9.70398792	1.01474835	2.03543156	9.80387152	-0.50401683	1.57442367	9.62957876	-1.68330683	1.42946226	9.64532256	1.17604516	-0.28050348	5.34722633	-1.90421468	8.26181148	4.94559179	2.47679360	10.84297957
2	0.01000000	9.30657041	0.04271992	5.88632168	9.71625067	-0.81719708	2.05595148	9.67704943	1.12490091	1.95691110	9.78417200	-0.48915233	1.59827463	9.60948699	-1.60622312	1.46243263	9.77177632	1.15760066	-0.28106403	5.36128368	-1.88913228	8.20876267	4.96934843	2.44354409	10.84972318
3	0.02000000	9.31616614	0.07484438	5.85584482	9.74422509	-0.80769023	2.04311147	9.76696700	1.18377151	1.98700824	9.79133143	-0.44017717	1.53880266	9.60834908	-1.62055482	1.48322209	9.82332445	1.14540393	-0.27507364	5.38331737	-1.85535271	8.22274411	4.99205108	2.45810288	10.87166656
4	0.03000000	9.29482823	0.09062791	5.80828987	9.73901522	-0.77607904	2.08532835	9.77646932	1.25906882	2.06889834	9.78948090	-0.47415925	1.49671268	9.63986573	-1.60483007	1.46461761	9.84570248	1.14103314	-0.29936228	5.38425099	-1.85182835	8.21515837	4.96842584	2.44546274	10.83774341
5	0.04000000	9.31880460	0.09526299	5.78223584	9.72171535	-0.76664516	2.07207479	9.71569291	1.26904462	2.06523644	9.77498028	-0.49688424	1.50842686	9.57501469	-1.68042387	1.46724696	9.82238891	1.14973130	-0.26193375	5.34942191	-1.87804328	8.21281380	4.98186745	2.44937680	10.81724255
6	0.05000000	9.31757440	0.10920772	5.78098664	9.70291622	-0.82858521	2.09781778	9.72045170	1.28673420	2.05008941	9.75623587	-0.50544078	1.56968200	9.53986440	-1.73611235	1.47031333	9.73538390	1.16227507	-0.27886650	5.36566263	-1.87594251	8.22725917	4.99973568	2.44294372	10.80783662
7	0.06000000	9.33124398	0.09922166	5.77387115	9.67235354	-0.83798247	2.12965833	9.73952546	1.24398389	2.06184433	9.77505695	-0.55771303	1.54018485	9.55310314	-1.77474849	1.48838000	9.71294325	1.18937050	-0.28772320	5.38183274	-1.86652576	8.22369870	4.99801491	2.41753062	10.85565452
8	0.07000000	9.31542234	0.09515563	5.76437946	9.61948382	-0.85027239	2.16366426	9.72666875	1.15369629	2.06230638	9.78977523	-0.56577378	1.58414581	9.56588491	-1.73760946	1.45454311	9.67764842	1.21881988	-0.26101598	5.35361435	-1.89047710	8.24075082	5.00341750	2.44727767	10.84562920
9	0.08000000	9.31002754	0.05960494	5.81045481	9.65504607	-0.87546657	2.13434444	9.72277434	1.08979980	2.02077230	9.75431474	-0.57115635	1.58638127	9.55608101	-1.66471342	1.43848168	9.66393501	1.20011832	-0.23640411	5.34043864	-1.88645323	8.22967718	4.99244596	2.47710907	10.83383504
10	0.09000000	9.36768479	0.08227152	5.76137844	9.65347106	-0.82187385	2.12098221	9.74760257	1.03538699	2.03534602	9.77188410	-0.57448520	1.56762520	9.54685711	-1.63441839	1.45390848	9.73295313	1.21521518	-0.22752555	5.35767384	-1.89129455	8.21574839	4.99073848	2.48655428	10.84596927
11	0.10000000	9.36740286	0.10006999	5.77843847	9.63548044	-0.83393009	2.12929615	9.77695601	1.02851741	2.05402429	9.77820208	-0.56208817	1.58820853	9.56081716	-1.61932811	1.47224598	9.74887858	1.18028710	-0.24749477	5.37804094	-1.87307683	8.22286703	4.96120383	2.44929251	10.81647246
12	0.11000000	9.36107293	0.06332124	5.79911887	9.64708120	-0.82372061	2.16093857	9.78371219	0.99809913	2.03295720	9.73035224	-0.63663094	1.59419213	9.58460661	-1.59120068	1.51222778	9.75273440	1.17772788	-0.24479246	5.34358689	-1.90119786	8.23612321	4.97654856	2.47258485	10.83238378
13	0.12000000	9.37426222	0.06741321	5.77030961	9.66685239	-0.86003567	2.14239611	9.78542970	1.02810209	2.05595568	9.78070671	-0.65633083	1.55490364	9.57233179	-1.53346854	1.51788808	9.75727735	1.18944556	-0.23383088	5.34571453	-1.91967184	8.21201515	4.96580735	2.45255991	10.85011972
14	0.13000000	9.38607809	0.09226984	5.73254641	9.66993590	-0.87899536	2.13050275	9.74028857	1.06129947	2.12269457	9.78676411	-0.64436397	1.59211540	9.59400001	-1.49319129	1.55279672	9.76237303	1.19151410	-0.25388828	5.36867650	-1.88035240	8.22027821	4.98633502	2.45062420	10.83780361
15	0.14000000	9.39450825	0.09721332	5.74556035	9.67581005	-0.88303233	2.16073256	9.72382702	1.09325780	2.07265018	9.79483186	-0.65045122	1.59700672	9.63727460	-1.47044238	1.57781788	9.75473276	1.22232195	-0.24224528	5.39245692	-1.87205002	8.22628900	4.95181308	2.45625477	10.86513213
16	0.15000000	9.40732318	0.08417889	5.72585304	9.69106556	-0.90164023	2.19942642	9.69950410	1.08423943	2.04051598	9.76657300	-0.62546680	1.60856216	9.63320220	-1.52343277	1.47849822	9.77416847	1.23947779	-0.27052773	5.39124871	-1.89360024	8.21241677	4.95812942	2.44443349	10.87127176
17	0.16000000	9.41953613	0.07508348	5.72558929	9.68003051	-0.90248734	2.20864055	9.74216854	1.02780943	2.10541359	9.77413034	-0.66289386	1.66764138	9.59228077	-1.58847112	1.44924401	9.80602816	1.22980421	-0.27816716	5.38575823	-1.90053875	8.21397943	5.01081085	2.46954448	10.83703742
18	0.17000000	9.41303856	0.09312474	5.76035404	9.63620232	-0.90429502	2.18283044	9.73640797	0.94746141	2.09325754	9.78429367	-0.60961345	1.69997442	9.57362929	-1.56223304	1.47483720	9.78492106	1.22567644	-0.28693055	5.38810812	-1.88911497	8.19318172	4.98823999	2.46257317	10.85560335
19	0.18000000	9.40623500	0.06577923	5.74323360	9.60911754	-0.87715126	2.22457148	9.67524534	0.86283819	2.08408132	9.79331974	-0.60610334	1.65203318	9.59819841	-1.55661267	1.52583387	9.75863663	1.21116891	-0.22868202	5.36984974	-1.88814806	8.20933896	4.96054981	2.41671703	10.85325785
20	0.19000000	9.42252857	0.07359238	5.72573663	9.57450794	-0.90227859	2.20724804	9.70221101	0.93279429	2.09801219	9.75095206	-0.62958976	1.60575294	9.62857112	-1.63345547	1.43663566	9.75425853	1.16204348	-0.21605275	5.36147620	-1.89393456	8.21813977	4.98926291	2.47926027	10.83989425
21	0.20000000	9.41894143	0.06245797	5.72996511	9.58983518	-0.89833931	2.18056614	9.69005199	0.98886743	2.10967553	9.75247554	-0.66310519	1.68834702	9.58509708	-1.69551845	1.32698240	9.73012127	1.14253691	-0.23815627	5.37111079	-1.87324928	8.22751119	4.99235364	2.47806927	10.84704979
22	0.21000000	9.39702811	0.09213653	5.70994810	9.60350609	-0.91592327	2.22822016	9.71244703	0.99142267	2.16035333	9.78488608	-0.65273819	1.69185490	9.55487636	-1.71176233	1.31778492	9.63639402	1.07238149	-0.25589615	5.36881013	-1.88516118	8.21666200	4.93986092	2.44311675	10.82442284
23	0.22000000	9.35994452	0.13801847	5.72669257	9.60613324	-0.91291095	2.23707748	9.76908443	1.01953707	2.14951467	9.81799740	-0.63993581	1.66761865	9.56144725	-1.73408800	1.37274983	9.71322276	1.12676998	-0.25014493	5.34836777	-1.88028294	8.25034345	4.98687666	2.46870217	10.83270883
24	0.23000000	9.38704152	0.14087059	5.75225995	9.62086482	-0.91106926	2.21040829	9.78589201	1.00029818	2.14048361	9.83373753	-0.61570830	1.71518447	9.51979231	-1.67612379	1.38952793	9.73277251	1.13661798	-0.25123721	5.38451755	-1.87380009	8.22845442	4.99500557	2.48294927	10.83020724
25	0.24000000	9.38821338	0.17966024	5.72760107	9.63043496	-0.89486262	2.19186996	9.76034848	1.02118676	2.13567372	9.85611168	-0.60023467	1.73148266	9.54695899	-1.60529569	1.42052968	9.73033241	1.10381461	-0.30950074	5.38031838	-1.89029446	8.26210131	4.97683510	2.42179987	10.82547175
26	0.25000000	9.29851243	0.22208400	5.65714627	9.63464964	-0.93573320	2.20067371	9.74845144	1.07511806	2.14715643	9.90335987	-0.59798771	1.72654165	9.49950153	-1.60392174	1.56243415	9.74124983	1.14397621	-0.28788815	5.38699707	-1.88898867	8.23787930	4.97080488	2.43783815	10.80874004
27	0.26000000	9.29716037	0.21856379	5.70216002	9.58996223	-1.02738286	2.19068940	9.73434785	1.12248597	2.14118817	9.85540143	-0.58502391	1.74490543	9.47916562	-1.58186395	1.67455988	9.76316171	1.19982463	-0.37160106	5.39208902	-1.83770034	8.23950685	4.99059191	2.40153225	10.83996775
28	0.27000000	9.36469342	0.18193782	5.68903001	9.61582286	-1.09263559	2.14900738	9.66490358	1.14764588	2.15763492	9.78945334	-0.60177816	1.81890483	9.57856386	-1.53589937	1.68049551	9.77931281	1.22492825	-0.35727990	5.39789978	-1.85123466	8.24557321	4.98034538	2.41536755	10.85756211
29	0.28000000	9.41987345	0.22254666	5.67855039	9.59914657	-1.15632225	2.20934019	9.62568851	1.15476245	2.13248319	9.68911087	-0.67100103	1.82503304	9.65460265	-1.40003180	1.57560490	9.81327112	1.25165533	-0.29482112	5.40906048	-1.83868629	8.20090994	4.96279861	2.44188597	10.89805579
30	0.29000000	9.46615604	0.24159336	5.69372328	9.59793725	-1.18891878	2.19759937	9.60943989	1.07969651	2.17639334	9.63592207	-0.73784222	1.85159074	9.77048148	-1.22341877	1.38981866	9.86229169	1.24694943	-0.34822409	5.37719535	-1.86737025	8.17893229	5.00129055	2.50548697	10.85775585
31	0.30000000	9.47899550	0.26297887	5.72701462	9.62378220	-1.22460015	2.20041934	9.63836858	1.00125023	2.16356687	9.65434712	-0.75532376	1.85687993	9.80739309	-1.20714518	1.23478476	9.89476175	1.23324717	-0.41056154	5.61981136	-1.86331013	8.06600454	5.01905863	2.51315595	10.83396990
